<svg viewBox="0 0 39 32" xmlns="http://www.w3.org/2000/svg" fill-rule="evenodd" clip-rule="evenodd" stroke-linejoin="round" stroke-miterlimit="1.414"><path d="M39.402 3.79c-1.45.643-3.008 1.08-4.643 1.274 1.67-1 2.95-2.584 3.552-4.47-1.563.925-3.293 1.598-5.135 1.958C31.705.982 29.605 0 27.277 0c-4.462 0-8.08 3.62-8.08 8.083 0 .636.067 1.25.21 1.84C12.686 9.587 6.73 6.37 2.742 1.478 2.046 2.675 1.65 4.064 1.65 5.546c0 2.8 1.426 5.277 3.594 6.727-1.322-.04-2.572-.408-3.663-1.01v.1c0 3.918 2.79 7.186 6.49 7.925-.68.19-1.393.285-2.134.285-.518 0-1.027-.048-1.517-.143 1.024 3.21 4.01 5.55 7.547 5.61-2.765 2.17-6.25 3.462-10.037 3.462-.656 0-1.3-.035-1.93-.112 3.578 2.293 7.826 3.63 12.39 3.63 14.87 0 23-12.315 23-22.997 0-.352-.008-.703-.022-1.047 1.58-1.14 2.953-2.565 4.034-4.185" fill="#fff" fill-rule="nonzero"/></svg>