<?xml version="1.0" standalone="no"?>
<!DOCTYPE svg PUBLIC "-//W3C//DTD SVG 20010904//EN"
 "http://www.w3.org/TR/2001/REC-SVG-20010904/DTD/svg10.dtd">
<svg version="1.0" xmlns="http://www.w3.org/2000/svg"
 width="200.000000pt" height="200.000000pt" viewBox="0 0 200.000000 200.000000"
 preserveAspectRatio="xMidYMid meet">
<metadata>
Created by potrace 1.10, written by Peter Selinger 2001-2011
</metadata>
<g transform="translate(0.000000,200.000000) scale(0.100000,-0.100000)"
fill="#000000" stroke="none">
<path d="M959 1880 l-21 -70 -43 0 c-23 0 -82 -11 -129 -25 -232 -67 -412
-209 -536 -421 -22 -38 -43 -83 -46 -101 l-6 -33 -84 0 c-105 0 -109 -12 -22
-76 40 -29 62 -53 60 -63 -2 -9 -6 -60 -9 -114 -12 -197 44 -387 162 -552 54
-75 140 -159 153 -151 6 3 -5 -41 -25 -100 -21 -64 -32 -109 -26 -115 5 -5 42
15 91 51 l82 61 63 -30 c202 -95 428 -111 639 -45 87 28 159 60 169 77 4 6 40
-14 85 -47 73 -52 105 -67 104 -48 -1 4 -14 45 -30 91 l-29 83 64 64 c121 121
206 280 242 452 11 57 14 111 10 207 -2 71 -7 137 -11 146 -5 12 12 29 64 68
39 28 68 56 65 61 -3 6 -46 10 -96 10 -76 0 -89 2 -89 17 0 24 -64 137 -115
203 -115 149 -296 266 -486 313 -73 18 -130 24 -145 14 -7 -4 -18 18 -28 56
-31 109 -48 113 -77 17z m150 -289 l108 -331 -51 0 -52 0 -48 148 c-27 81 -56
164 -65 185 l-16 38 -37 -113 c-20 -62 -76 -237 -124 -388 -47 -151 -88 -277
-90 -279 -2 -2 -19 8 -38 23 l-35 26 14 43 c7 23 50 155 93 292 197 616 224
697 228 692 3 -2 54 -154 113 -336z m-189 203 c0 -3 -5 -24 -11 -47 l-10 -42
-81 -19 c-46 -10 -119 -37 -171 -64 -120 -61 -263 -198 -320 -309 l-38 -73
-50 0 c-27 0 -49 3 -49 6 0 10 71 147 93 178 127 183 323 315 537 360 72 16
100 19 100 10z m319 -25 c207 -55 409 -214 516 -404 55 -97 55 -95 -2 -95
l-50 0 -47 75 c-117 184 -294 307 -505 349 -52 11 -54 13 -67 56 -8 25 -14 47
-14 49 0 7 95 -10 169 -30z m-344 -96 c-4 -10 -37 -111 -73 -226 l-67 -207
-227 -3 -226 -2 35 68 c20 38 68 102 106 144 110 117 220 184 368 223 92 24
93 24 84 3z m284 1 c192 -47 354 -164 462 -333 l49 -76 -137 -6 c-76 -4 -178
-7 -228 -8 l-90 -1 -71 220 c-40 121 -67 220 -61 220 6 0 40 -7 76 -16z m-134
-254 c30 -90 54 -165 52 -166 -1 -1 -51 -3 -112 -6 l-110 -3 38 115 c20 63 44
141 53 173 9 32 19 56 21 54 2 -2 28 -78 58 -167z m925 -183 c-8 -8 -91 -70
-185 -139 -93 -69 -222 -164 -285 -211 -123 -91 -119 -91 -134 -22 -5 27 -1
33 37 60 112 79 268 198 263 202 -4 5 -250 -171 -293 -210 -18 -16 -23 -17
-27 -6 -2 8 -19 58 -36 111 -17 54 -31 101 -31 105 1 4 94 9 208 10 113 2 209
6 212 9 3 3 -184 4 -417 2 -232 -2 -422 -1 -422 1 0 2 5 21 12 42 l11 39 76 1
c42 1 227 5 411 8 607 13 616 13 600 -2z m-1236 -29 c-23 -74 -1 -67 -226 -70
l-203 -3 130 -94 c72 -52 220 -160 330 -239 110 -80 204 -149 209 -154 10 -8
-1 -19 -50 -54 -20 -14 -40 -1 -376 238 -195 139 -393 280 -441 313 -47 33
-86 63 -86 67 -1 4 126 9 281 11 156 1 318 3 361 5 77 2 78 2 71 -20z m271
-78 l140 0 50 -157 c33 -103 46 -158 39 -160 -7 -2 -62 -42 -124 -88 -105 -78
-113 -83 -129 -67 -9 9 -66 52 -127 95 l-110 79 43 130 c23 72 45 144 49 161
4 21 9 26 17 18 7 -7 63 -11 152 -11z m-287 -12 c-3 -7 -20 -58 -38 -114 l-33
-101 -136 100 c-75 55 -142 102 -148 104 -35 14 3 18 173 21 153 3 186 1 182
-10z m547 0 c164 -498 333 -1023 331 -1026 -2 -1 -58 36 -124 83 l-121 85 -62
-25 c-176 -71 -382 -73 -564 -4 -55 21 -58 23 -39 35 11 8 85 62 165 122 l146
108 167 -119 c92 -66 170 -117 172 -114 3 3 -69 58 -160 123 l-165 117 37 28
c20 16 40 29 43 29 3 0 77 -52 164 -115 87 -63 160 -113 162 -111 2 2 -55 181
-127 397 -71 217 -130 395 -130 396 0 2 23 3 50 3 32 0 52 -5 55 -12z m592
-35 c4 -21 8 -92 7 -158 -1 -228 -79 -420 -242 -594 -33 -35 -62 -59 -64 -55
-3 5 -8 23 -12 39 -4 17 -14 44 -21 60 -33 75 -136 408 -129 415 33 32 348
259 353 254 13 -13 4 -231 -12 -294 -24 -93 -99 -237 -159 -304 -28 -31 -48
-59 -45 -62 12 -13 113 120 157 208 64 127 83 214 78 361 l-3 113 35 26 c19
15 38 27 42 27 4 1 11 -16 15 -36z m-1642 -32 c18 -11 20 -22 17 -104 -7 -189
58 -369 186 -517 42 -49 42 -49 31 -95 -6 -25 -15 -45 -19 -45 -4 0 -32 26
-62 58 -155 164 -231 359 -231 598 0 137 4 152 36 131 12 -8 31 -19 42 -26z
m382 -269 c8 -5 2 -33 -21 -102 -18 -52 -49 -146 -67 -209 -19 -63 -36 -105
-38 -95 -2 10 -21 39 -43 64 -91 103 -157 251 -178 396 -11 82 -13 177 -4 186
3 3 80 -48 172 -114 92 -66 172 -123 179 -126z m661 -24 c6 -24 8 -46 4 -49
-34 -28 -863 -639 -867 -639 -4 0 -3 5 0 11 4 5 55 160 114 343 l107 333 32
-22 c18 -13 35 -24 37 -27 4 -4 -111 -373 -121 -390 -13 -20 16 -1 173 115
428 316 498 367 504 367 4 0 11 -19 17 -42z m83 -226 c32 -92 56 -168 55 -169
-1 -1 -68 46 -148 105 l-146 106 78 58 c43 31 81 62 85 68 4 6 10 8 14 5 3 -4
31 -82 62 -173z m-543 106 c48 -34 89 -64 92 -66 3 -2 -6 -13 -20 -23 -14 -10
-83 -62 -154 -114 -71 -53 -126 -90 -124 -83 3 7 29 88 58 181 30 92 55 167
58 167 2 0 43 -28 90 -62z m-38 -434 c155 -54 330 -52 497 5 l86 30 39 -27
c20 -15 38 -30 38 -34 0 -14 -159 -72 -250 -90 -110 -23 -272 -20 -375 7 -63
16 -215 76 -215 85 0 13 87 59 100 53 8 -3 44 -16 80 -29z"/>
</g>
</svg>
