<svg xmlns="http://www.w3.org/2000/svg" viewBox="0 0 40 40"><path fill="#010101" d="M28.1 6.8H11.4c-2.9 0-5.2 2.4-5.2 5.2v16.6c0 2.9 2.4 5.2 5.2 5.2H28c2.9 0 5.2-2.4 5.2-5.2V12c.1-2.9-2.3-5.2-5.1-5.2zm1.5 3.1h.6v4.6h-4.6V9.9h4zm-13.7 7.7c.9-1.2 2.3-2 3.9-2s3 .8 3.9 2c.6.8.9 1.7.9 2.8 0 2.6-2.1 4.8-4.8 4.8-2.6 0-4.8-2.1-4.8-4.8 0-1.1.3-2 .9-2.8zm14.8 11.1c0 1.4-1.2 2.6-2.6 2.6H11.4c-1.4 0-2.6-1.2-2.6-2.6V17.6h4.1c-.4.9-.5 1.8-.5 2.8 0 4.1 3.3 7.4 7.4 7.4 4.1 0 7.4-3.3 7.4-7.4 0-1-.2-1.9-.5-2.8h4.1v11.1z"/></svg>