<svg viewBox="0 0 77 77" xmlns="http://www.w3.org/2000/svg" fill-rule="evenodd" clip-rule="evenodd" stroke-linejoin="round" stroke-miterlimit="1.414"><path d="M38.613 0C17.32 0 0 17.324 0 38.617 0 59.907 17.32 77.23 38.613 77.23c21.292 0 38.613-17.323 38.613-38.613C77.226 17.324 59.906 0 38.613 0M7.19 42.14h62.846c-.378 3.4-1.3 6.632-2.67 9.618H9.86c-1.37-2.986-2.292-6.22-2.67-9.62m34.948-7.052v-9.612h25.227c1.372 2.984 2.293 6.218 2.672 9.612h-27.9zM62.93 18.422H42.138V7.192c8.33.93 15.697 5.104 20.792 11.23M35.088 7.192v27.894h-27.9C8.82 20.46 20.464 8.824 35.09 7.19m3.525 63.05c-9.765 0-18.512-4.453-24.317-11.432H62.93c-5.805 6.98-14.55 11.432-24.317 11.432" fill="#fff" fill-rule="nonzero"/></svg>